<?xml version="1.0" encoding="UTF-8" standalone="no"?> <!-- Created with Vectornator for iOS (http://vectornator.io/) --><!DOCTYPE svg PUBLIC "-//W3C//DTD SVG 1.1//EN" "http://www.w3.org/Graphics/SVG/1.1/DTD/svg11.dtd">
<svg height="100%" style="fill-rule:nonzero;clip-rule:evenodd;stroke-linecap:round;stroke-linejoin:round;" xmlns:xlink="http://www.w3.org/1999/xlink" xmlns="http://www.w3.org/2000/svg" xml:space="preserve" width="100%" xmlns:vectornator="http://vectornator.io" version="1.1" viewBox="0 0 1024 1024">
<metadata>
<vectornator:setting key="DimensionsVisible" value="1"/>
<vectornator:setting key="PencilOnly" value="0"/>
<vectornator:setting key="SnapToPoints" value="0"/>
<vectornator:setting key="OutlineMode" value="0"/>
<vectornator:setting key="CMYKEnabledKey" value="0"/>
<vectornator:setting key="RulersVisible" value="1"/>
<vectornator:setting key="SnapToEdges" value="0"/>
<vectornator:setting key="GuidesVisible" value="1"/>
<vectornator:setting key="DisplayWhiteBackground" value="0"/>
<vectornator:setting key="doHistoryDisabled" value="0"/>
<vectornator:setting key="SnapToGuides" value="1"/>
<vectornator:setting key="TimeLapseWatermarkDisabled" value="0"/>
<vectornator:setting key="Units" value="Pixels"/>
<vectornator:setting key="DynamicGuides" value="0"/>
<vectornator:setting key="IsolateActiveLayer" value="0"/>
<vectornator:setting key="SnapToGrid" value="1"/>
</metadata>
<defs/>
<g id="图层 2" vectornator:layerName="图层 2">
<path stroke="#000000" stroke-width="1" d="M428.974-573.016C431.66-563.346+415.475-562.508+416.192-572.476C415.487-574.828+414.782-577.179+414.076-579.53C413.641-582.436+411.648-585.235+412.073-588.279C413.237-596.441+425.666-594.08+425.044-586.116C425.749-583.764+426.454-581.413+427.16-579.062C427.764-577.046+428.369-575.031+428.974-573.016L428.974-573.016Z" fill="#999999" stroke-linecap="round" opacity="0" stroke-linejoin="round"/>
<path stroke="#000000" stroke-width="1" d="M220+520C220+299.086+394.609+120+610+120C825.391+120+1000+299.086+1000+520C1000+740.914+825.391+920+610+920C394.609+920+220+740.914+220+520Z" fill="#b5d0da" stroke-linecap="round" opacity="1" stroke-linejoin="round"/>
<path stroke="#000000" stroke-width="1" d="M860+280C860+280+864.477+280+870+280C875.523+280+880+280+880+280C880+280+875.523+280+870+280C864.477+280+860+280+860+280Z" fill="#999999" stroke-linecap="round" opacity="0" stroke-linejoin="round"/>
</g>
<g id="图层 1" vectornator:layerName="图层 1">
<path stroke="#000000" stroke-width="7.00271" d="M138.38+180L701.62+180C711.771+180+720+192.243+720+207.345L720+292.655C720+307.757+711.771+320+701.62+320L579.249+320L138.38+320C128.229+320+120+307.757+120+292.655L120+207.345C120+192.243+128.229+180+138.38+180Z" fill="#999999" stroke-linecap="butt" fill-opacity="0" opacity="1" stroke-linejoin="round"/>
<path d="M164.355+215.174L575.645+215.174C578.05+215.174+580+218.902+580+223.501L580+276.673C580+281.272+578.05+285+575.645+285L164.355+285C161.95+285+160+281.272+160+276.673L160+223.501C160+218.902+161.95+215.174+164.355+215.174Z" opacity="1" fill="#000000"/>
<path d="M620+220L680+220" opacity="1" fill="none"/>
<path stroke="#000000" stroke-width="1" d="M637.887+245.427C639.622+256.207+622.392+254.153+624.783+243.66C620.834+239.209+626.94+235.548+631.398+235.749C635.334+246.769+638.841+259.048+645.71+268.791C651.98+264.909+659.908+257.982+665.279+251.499C668.418+247.409+671.702+243.43+675.435+239.86C676.824+238.393+678.174+236.889+679.471+235.34C683.642+225.112+698.285+235.35+689.776+242.363C688.527+243.805+687.313+245.278+686.018+246.679C683.163+249.836+679.953+252.672+677.406+256.103C669.503+265.334+661.136+275.751+649.211+279.702C628.87+280.7+623.838+252.639+620.407+237.204C626.94+223.402+638.142+235.374+637.887+245.427L637.887+245.427Z" fill="#000000" stroke-linecap="round" opacity="1" stroke-linejoin="round"/>
<path stroke="#000000" stroke-width="1" d="M204.041+406.833C204.301+400.818+213.456+399.18+215.779+404.737C218.163+411.511+213.292+418.952+215.759+425.894C232.953+500.459+236.436+577.624+226.478+653.498C229.492+693.933+231.741+735.001+226.57+775.315C226.782+782.18+227.881+788.998+228.665+795.817C229.525+800.455+232.309+806.455+237.663+806.842C272.307+804.642+306.691+798.581+341.459+797.888C351.82+797.988+362.19+797.66+372.546+798.103C389.485+799.085+406.079+803.182+423.019+804.148C520.138+807.692+617.242+804.276+714.392+804.04C755.124+799.444+796.161+797.42+836.917+793.977C853.365+788.584+872.499+787.498+886.375+776.33C889.519+773.46+891.789+769.762+893.168+765.747C899.554+735.174+901.714+703.618+903.27+672.407C901.328+651.239+895.758+630.497+894.017+609.266C893.242+600.759+892.807+592.224+892.581+583.686C895.467+531.603+884.477+479.624+891.883+427.718C892.181+423.873+892.415+419.978+891.856+416.144C891.023+407.757+883.476+401.142+875.514+399.486C869.929+398.179+864.192+397.607+858.464+397.513C763.342+399.888+668.859+385.6+573.877+383.013C563.632+383.086+553.383+382.879+543.14+383.106C461.305+391.737+379.174+394.536+297.26+402.254C271.36+404.377+246.145+393.531+220.32+399.119C213.405+400.002+211.112+389.075+217.799+387.104C244.254+380.737+270.338+391.635+296.886+389.872C378.732+382.125+460.796+379.346+542.566+370.727C553.076+370.48+563.592+370.69+574.105+370.619C669.216+373.188+763.824+387.487+859.074+385.14C863.131+385.225+867.184+385.55+871.2+386.136C880.337+387.222+889.612+390.553+895.867+397.583C901.022+402.844+903.99+409.988+904.337+417.326C904.624+420.977+904.538+424.648+904.256+428.296C896.913+479.884+907.873+531.541+904.969+583.307C905.184+591.586+905.6+599.863+906.354+608.112C908.15+629.567+913.85+650.522+915.643+671.942C913.381+705.995+912.95+741.163+903.034+773.932C898.258+784.242+888.678+791.617+878.034+795.135C863.931+799.943+849.481+803.881+834.905+806.96C794.87+809.112+754.86+812.426+714.941+816.42C617.351+816.685+519.806+820.098+422.247+816.514C405.294+815.593+388.691+811.5+371.749+810.467C361.762+810.048+351.761+810.388+341.769+810.279C308.419+811.104+275.407+816.404+242.193+819.082C235.829+819.509+228.991+817.903+224.386+813.252C219.804+808.581+216.941+802.38+216.167+795.896C215.506+788.937+214.291+782.01+214.203+775.009C219.356+734.742+217.033+693.753+214.094+653.364C224.006+577.919+220.512+501.248+203.45+427.097C202.353+420.342+203.457+413.569+204.041+406.833L204.041+406.833Z" fill="#000000" stroke-linecap="round" opacity="1" stroke-linejoin="round"/>
<path stroke="#000000" stroke-width="1" d="M330.036+511.979C322.988+512.957+320.722+501.743+327.599+499.912C391.633+493.738+455.892+506.026+520.046+499.606C530.946+499.661+541.849+499.483+552.748+499.71C604.856+505.115+658.049+504.621+709.957+503.692C714.503+506.065+713.683+513.578+708.732+514.916C656.718+519.65+604.279+515.97+552.306+512.096C541.643+511.88+530.977+512.058+520.313+511.998C456.867+518.22+393.414+506.678+330.036+511.979L330.036+511.979Z" fill="#000000" stroke-linecap="round" opacity="1" stroke-linejoin="round"/>
<path stroke="#000000" stroke-width="1" d="M336.678+598.49C346.574+594.609+348.512+611.552+337.941+611.466C334.183+615.202+328.565+610.789+330.975+606.275C332.496+604.055+335.649+604.37+337.92+604.427C392.832+607.97+447.995+605.083+503.008+606.021C564.026+611.992+625.648+606.898+686.614+606.496C691.315+608.176+691.713+615.46+687.223+617.643C682.432+619.693+676.817+618.661+671.809+619.711C616.982+618.668+562.114+624.809+507.455+618.51C459.025+618.277+410.59+618.488+362.158+618.409C351.705+617.73+341.04+617.358+330.758+615.956C321.635+610.406+327.794+599.36+336.678+598.49L336.678+598.49Z" fill="#000000" stroke-linecap="round" opacity="1" stroke-linejoin="round"/>
<path stroke="#000000" stroke-width="1" d="M342.481+713.373C351.434+719.1+337.809+731.142+333.005+721.021C332.037+720.067+331.068+719.112+330.1+718.157C328.896+716.158+322.51+712.856+325.389+709.387C329.452+706.985+334.337+708.515+338.735+707.942C410.083+710.34+481.779+713.761+553.048+707.598C607.806+707.446+663.154+708.805+717.542+704.979C722.539+707.043+721.976+715.124+716.741+716.474C704.326+718.046+691.751+718.948+679.263+719.883C637.317+720.136+595.365+719.918+553.416+719.987C484.499+725.959+415.139+722.971+346.144+720.546C342.148+719.803+334.589+718.048+334.588+713.148C337.168+712.402+339.855+713.382+342.481+713.373L342.481+713.373Z" fill="#000000" stroke-linecap="round" opacity="1" stroke-linejoin="round"/>
<path stroke="#000000" stroke-width="1" d="M1797.14+586.79C1806.97+585.013+1806.37+601.145+1796.55+599.551C1794.2+600.021+1791.84+600.491+1789.49+600.962C1786.61+601.127+1783.68+602.808+1780.74+602.106C1772.76+600.202+1776.19+588.084+1784.04+589.41C1786.39+588.939+1788.74+588.469+1791.09+587.999C1793.11+587.596+1795.12+587.193+1797.14+586.79L1797.14+586.79Z" fill="#999999" stroke-linecap="round" opacity="1" stroke-linejoin="round"/>
<path stroke="#000000" stroke-width="1" d="M744.675+606.672C740.909+598.9+754.322+594.152+756.397+602.523C757.053+604.001+757.708+605.478+758.363+606.955C759.35+609.217+760.367+611.465+761.441+613.687C763.249+617.303+765.129+620.946+767.729+624.069C769.812+626.425+773.415+626.819+776.329+626.141C787.625+618.177+796.393+606.383+803.499+594.566C808.866+583.589+814.159+572.552+819.172+561.408C820.096+559.053+820.95+556.674+821.712+554.262C819.97+544.702+835.279+540.892+835.537+551.104C824.305+583.055+810.398+619.483+779.975+637.591C760.291+643.693+750.283+621.38+744.675+606.672L744.675+606.672Z" fill="#000000" stroke-linecap="round" opacity="1" stroke-linejoin="round"/>
</g>
</svg>
